<?xml version="1.0" encoding="UTF-8" standalone="no"?>
<!DOCTYPE svg PUBLIC "-//W3C//DTD SVG 1.1//EN" "http://www.w3.org/Graphics/SVG/1.1/DTD/svg11.dtd">
<svg width="100%" height="100%" viewBox="0 0 562 281" version="1.1" xmlns="http://www.w3.org/2000/svg" xmlns:xlink="http://www.w3.org/1999/xlink" xml:space="preserve" xmlns:serif="http://www.serif.com/" style="fill-rule:evenodd;clip-rule:evenodd;stroke-linecap:round;stroke-linejoin:round;stroke-miterlimit:1.5;">
    <rect x="0" y="0" width="561.316" height="280.654" style="fill:none;stroke:black;stroke-width:20px;"/>
    <path d="M280.656,0C312.424,90.477 312.335,190.298 280.656,280.656L561.313,280.656L561.313,0L280.656,0ZM332.063,46.844C329.507,46.844 327.469,48.92 327.469,51.469L327.406,135.813C327.406,138.361 329.483,140.438 332.031,140.438L341.375,140.438C343.923,140.438 346,138.361 346,135.813L346.063,51.469C346.063,48.92 343.986,46.844 341.438,46.844L332.063,46.844ZM370.063,46.844C367.514,46.844 365.438,48.92 365.438,51.469L365.438,135.813C365.438,138.361 367.507,140.438 370.063,140.438L379.281,140.438C381.837,140.438 383.906,138.361 383.906,135.813L383.906,101.063L421.094,101.063L421.125,135.813C421.125,138.361 423.194,140.438 425.75,140.438L434.937,140.438C437.486,140.438 439.562,138.361 439.562,135.813L439.562,51.469C439.562,48.92 437.486,46.844 434.937,46.844L425.687,46.844C423.139,46.844 421.094,48.92 421.094,51.469L421.094,85.406L383.906,85.406L383.937,51.469C383.937,48.92 381.868,46.844 379.312,46.844L370.063,46.844ZM463.563,46.844C461.014,46.844 458.969,48.92 458.969,51.469L458.938,135.813C458.938,138.361 461.007,140.438 463.563,140.438L472.125,140.438C474.673,140.438 476.75,138.361 476.75,135.813L476.75,113.75L492.313,96.969L516.313,135.813C517.874,138.361 520.062,140.438 522.625,140.438L535.469,140.438C538.025,140.438 538.819,138.361 537.25,135.813L504.125,83.75L532.781,51.469C535.068,48.92 534.853,46.844 532.313,46.844L519.75,46.844C517.194,46.844 515.915,46.585 511.813,50.688L476.813,88.594L476.719,51.469C476.719,48.92 474.65,46.844 472.094,46.844L463.563,46.844Z"/>
</svg>
